<?xml version="1.0" encoding="UTF-8" standalone="no"?>
<!-- Created with Inkscape (http://www.inkscape.org/) -->

<svg
   xmlns:dc="http://purl.org/dc/elements/1.1/"
   xmlns:cc="http://creativecommons.org/ns#"
   xmlns:rdf="http://www.w3.org/1999/02/22-rdf-syntax-ns#"
   xmlns:svg="http://www.w3.org/2000/svg"
   xmlns="http://www.w3.org/2000/svg"
   xmlns:sodipodi="http://sodipodi.sourceforge.net/DTD/sodipodi-0.dtd"
   xmlns:inkscape="http://www.inkscape.org/namespaces/inkscape"
   width="236.46233mm"
   height="131.1275mm"
   viewBox="0 0 236.46233 131.1275"
   version="1.1"
   id="svg3875"
   sodipodi:docname="drawing.svg"
   inkscape:version="0.92.5 (2060ec1f9f, 2020-04-08)">
  <defs
     id="defs3869" />
  <sodipodi:namedview
     id="base"
     pagecolor="#ffffff"
     bordercolor="#666666"
     borderopacity="1.0"
     inkscape:pageopacity="0.0"
     inkscape:pageshadow="2"
     inkscape:zoom="0.35"
     inkscape:cx="528.00158"
     inkscape:cy="-321.54287"
     inkscape:document-units="mm"
     inkscape:current-layer="layer1"
     showgrid="false"
     inkscape:window-width="1920"
     inkscape:window-height="1016"
     inkscape:window-x="0"
     inkscape:window-y="27"
     inkscape:window-maximized="1"
     objecttolerance="20"
     fit-margin-top="0"
     fit-margin-left="0"
     fit-margin-right="0"
     fit-margin-bottom="0" />
  <metadata
     id="metadata3872">
    <rdf:RDF>
      <cc:Work
         rdf:about="">
        <dc:format>image/svg+xml</dc:format>
        <dc:type
           rdf:resource="http://purl.org/dc/dcmitype/StillImage" />
        <dc:title></dc:title>
      </cc:Work>
    </rdf:RDF>
  </metadata>
  <g
     inkscape:label="Layer 1"
     inkscape:groupmode="layer"
     id="layer1"
     transform="translate(16.933542,-49.251727)">
    <g
       transform="matrix(0.26458333,0,0,0.26458333,-79.98375,31.868602)"
       id="g3818">
      <polygon
         points="509,556.7 319,145.3 319,538 396.3,548 396.3,561.3 238.3,561.3 238.3,548.7 286.3,543.3 286.3,84.7 247,80 247,65.7 356.3,65.7 534.3,450 664.3,166 664.3,246 521.7,556.7 "
         id="polygon3812" />
      <rect
         x="736.29999"
         y="222.7"
         width="35.299999"
         height="207.3"
         id="rect3814" />
      <path
         inkscape:connector-curvature="0"
         d="M 795.7,65.7 V 102 c 0,0 100,-24.3 167.3,23.3 0,0 84.3,46.7 84.3,180.3 0,0 4.2,130.4 -71.2,186.7 -1.8,1.3 -3.5,2.7 -5.1,4.2 -9.4,8.6 -54.1,42.6 -170.1,39.4 -0.8,0 -1.7,0 -2.5,0.1 l -55.4,6.5 v 14.7 h 150 c 0,0 193.1,-0.3 232.7,-176.3 0.9,-4.1 1.5,-8.2 1.9,-12.4 1.8,-20.8 9.3,-91.6 -0.6,-124 0,0 -26.7,-153.7 -190,-172.7 z"
         id="path3816" />
    </g>
  </g>
</svg>
